<svg xmlns="http://www.w3.org/2000/svg" width="48" height="48" viewBox="0 0 48 48" fill="none"><g clip-path="url(#clip0_3211_1170)"><path d="M42.5995 2.80048C42.22 2.30098 41.629 2.00098 40.999 2.00098H6.99855C6.36855 2.00098 5.77905 2.30098 5.39805 2.80048L-0.00195312 10.0005V14.991C-0.00195312 17.3805 1.67805 19.5105 3.99855 19.911V42.0015C3.99855 44.211 5.78805 46.002 7.99905 46.002H39.9985C42.208 46.002 43.999 44.2125 43.999 42.0015V19.911C46.3195 19.5105 47.9995 17.3805 47.9995 14.991V10.0005L42.5995 2.80048ZM40 44.0895H8.00055C6.85005 44.0895 5.91105 43.149 5.91105 42V19.8705C8.03055 19.371 9.60105 17.4705 9.60105 15.201C9.60105 17.8515 11.7505 20.001 14.401 20.001C17.0515 20.001 19.201 17.8515 19.201 15.201C19.201 17.8515 21.3505 20.001 24.001 20.001C26.6515 20.001 28.801 17.8515 28.801 15.201C28.801 17.8515 30.9505 20.001 33.601 20.001C36.2515 20.001 38.401 17.8515 38.401 15.201C38.401 17.4705 39.9805 19.371 42.091 19.8705V42C42.091 43.1505 41.149 44.0895 40 44.0895Z" fill="#1C1C1C"></path><path d="M31.1593 25.7505H35.3698L24.8593 36.1905L17.4688 31.131L10.2988 38.391L11.3683 39.4515L17.6488 33.081L25.0288 38.1315L36.4093 26.832V31.002H37.9093V24.252H31.1593V25.7505Z" fill="#1C1C1C"></path></g><defs><clipPath id="clip0_3211_1170"><rect width="48" height="48" fill="white"></rect></clipPath></defs></svg>