<svg xmlns="http://www.w3.org/2000/svg" width="48" height="48" viewBox="0 0 48 48" fill="none"><path d="M42.0005 1.00049H6.0005C3.791 1.00049 2 2.78999 2 5.00099V43.0005C2 45.21 3.7895 47.001 6.0005 47.001H42.0005C44.21 47.001 46.001 45.2115 46.001 43.0005V5.00099C46.001 2.79149 44.2115 1.00049 42.0005 1.00049ZM44 43.0005C44 44.1 43.1 45 42.0005 45H6.0005C4.901 45 4.001 44.1 4.001 43.0005V7.00049H44.0015L44 43.0005Z" fill="#1C1C1C"></path><path d="M10.9995 25.0005H21C22.0995 25.0005 22.9995 24.1005 22.9995 23.001V13.0005C22.9995 11.901 22.0995 11.001 21 11.001H10.9995C9.9 11.001 9 11.901 9 13.0005V23.001C9 24.1005 9.9 25.0005 10.9995 25.0005ZM10.3995 13.0005C10.3995 12.6705 10.6695 12.4005 10.9995 12.4005H21C21.33 12.4005 21.6 12.6705 21.6 13.0005V23.001C21.6 23.331 21.33 23.601 21 23.601H10.9995C10.6695 23.601 10.3995 23.331 10.3995 23.001V13.0005Z" fill="#1C1C1C"></path><path d="M10.7515 41.0806H20.752C21.8515 41.0806 22.7515 40.1806 22.7515 39.0811V29.0806C22.7515 27.9811 21.8515 27.0811 20.752 27.0811H10.7515C9.65195 27.0811 8.75195 27.9811 8.75195 29.0806V39.0811C8.75195 40.1911 9.65195 41.0806 10.7515 41.0806ZM10.1605 29.0806C10.1605 28.7506 10.4305 28.4806 10.7605 28.4806H20.761C21.091 28.4806 21.361 28.7506 21.361 29.0806V39.0811C21.361 39.4111 21.091 39.6811 20.761 39.6811H10.7605C10.4305 39.6811 10.1605 39.4111 10.1605 39.0811V29.0806Z" fill="#1C1C1C"></path><path d="M26.9995 40.9995H37C38.0995 40.9995 38.9995 40.0995 38.9995 39V28.9995C38.9995 27.9 38.0995 27 37 27H26.9995C25.9 27 25 27.9 25 28.9995V39C25 40.0995 25.9 40.9995 26.9995 40.9995ZM26.3995 28.9995C26.3995 28.6695 26.6695 28.3995 26.9995 28.3995H37C37.33 28.3995 37.6 28.6695 37.6 28.9995V39C37.6 39.33 37.33 39.6 37 39.6H26.9995C26.6695 39.6 26.3995 39.33 26.3995 39V28.9995Z" fill="#1C1C1C"></path><path d="M26.9995 25.0005H37C38.0995 25.0005 38.9995 24.1005 38.9995 23.001V13.0005C38.9995 11.901 38.0995 11.001 37 11.001H26.9995C25.9 11.001 25 11.901 25 13.0005V23.001C25 24.1005 25.9 25.0005 26.9995 25.0005ZM29.35 16.9005L31.1395 18.69L34.639 15.1905L35.6995 16.251L31.1395 20.811L28.2895 17.961L29.35 16.9005Z" fill="#1C1C1C"></path></svg>