<svg xmlns="http://www.w3.org/2000/svg" width="48" height="48" viewBox="0 0 48 48" fill="none"><path d="M43.0597 24.6C42.7402 24.42 42.3397 24.42 42.0202 24.6105L38.8102 26.5005C38.2507 26.8305 37.9102 27.4305 37.9102 28.08V31.86C37.9102 32.2305 38.1097 32.5695 38.4307 32.76C38.5912 32.85 38.7712 32.8995 38.9407 32.8995C39.1207 32.8995 39.3007 32.85 39.4702 32.76L42.6802 30.87C43.2397 30.54 43.5802 29.94 43.5802 29.2905V25.5C43.5802 25.1295 43.3807 24.7905 43.0597 24.6Z" fill="#1C1C1C"></path><path d="M44.2908 9.65994L31.2903 2.00994C29.7303 1.09044 27.7803 1.09044 26.2203 2.00994L13.2198 9.65994C11.7003 10.5494 10.7598 12.2099 10.7598 13.9694V22.7789C5.40934 23.7194 1.33984 28.3889 1.33984 33.9989C1.33984 40.2884 6.45934 45.4094 12.7503 45.4094C17.1108 45.4094 20.8998 42.9494 22.8198 39.3494L26.2098 41.3489C26.9898 41.8094 27.8703 42.0389 28.7493 42.0389C29.6283 42.0389 30.4998 41.8094 31.2888 41.3489L44.2893 33.6989C45.8088 32.8094 46.7493 31.1489 46.7493 29.3894V13.9694C46.7493 12.1994 45.8088 10.5494 44.2893 9.65994H44.2908ZM27.2298 3.73044C28.1703 3.17994 29.3298 3.17994 30.2703 3.73044L43.2708 11.3804C43.4313 11.4704 43.5708 11.6009 43.7103 11.7209L40.2108 13.7804L25.1808 4.94094L27.2298 3.73044ZM23.2098 6.10044L39.2493 15.5399L39.2688 21.2099C39.2688 21.5594 39.0783 21.8999 38.7783 22.0799L35.2683 24.1394L35.2488 17.8289L19.2588 8.42844L23.2083 6.09894L23.2098 6.10044ZM16.9998 34.7504H13.7493V38.0009H12.2493V34.7504H8.99884V33.2504H12.2493V29.9999H13.7493V33.2504H16.9998V34.7504ZM27.7503 39.8399C27.5703 39.7799 27.3903 39.7199 27.2298 39.6194L23.6103 37.4894C23.9703 36.3899 24.1608 35.2094 24.1608 33.9899C24.1608 27.7004 19.0413 22.5794 12.7503 22.5794V13.9589C12.7503 13.7894 12.7908 13.6289 12.8208 13.4594L27.7503 22.2389V39.8399ZM13.7898 11.7194C13.9293 11.5994 14.0598 11.4689 14.2293 11.3789L17.2893 9.57894L32.3193 18.4184L28.7493 20.5184L13.7898 11.7179V11.7194ZM44.7498 29.3894C44.7498 30.4499 44.1798 31.4399 43.2693 31.9694L30.2688 39.6194C30.0993 39.7199 29.9283 39.7799 29.7483 39.8399V22.2494L33.2583 20.1899L33.2688 24.1394C33.2688 24.8699 33.6483 25.5089 34.2783 25.8689C34.5888 26.0489 34.9278 26.1389 35.2683 26.1389C35.6178 26.1389 35.9688 26.0489 36.2778 25.8584L39.7878 23.7989C40.7073 23.2589 41.2683 22.2689 41.2683 21.1994L41.2488 15.4889L44.6793 13.4684C44.7093 13.6379 44.7498 13.7984 44.7498 13.9679V29.3879V29.3894Z" fill="#1C1C1C"></path></svg>